<svg width="1188" height="383" viewBox="0 0 1188 383" fill="none" xmlns="http://www.w3.org/2000/svg">
<path d="M313.721 288.132V165.605H341.8V288.132H313.721ZM327.761 143.142C322.996 143.142 318.996 141.525 315.763 138.292C312.7 135.059 311.168 131.06 311.168 126.295C311.168 121.53 312.7 117.531 315.763 114.297C318.996 111.064 322.996 109.447 327.761 109.447C332.696 109.447 336.695 111.064 339.758 114.297C342.821 117.531 344.353 121.53 344.353 126.295C344.353 131.06 342.821 135.059 339.758 138.292C336.695 141.525 332.696 143.142 327.761 143.142ZM444.511 288.132V217.424C444.511 209.255 441.874 202.533 436.598 197.258C431.493 191.982 424.856 189.345 416.688 189.345C411.242 189.345 406.392 190.536 402.138 192.918C397.883 195.301 394.565 198.619 392.183 202.874C389.8 207.128 388.609 211.978 388.609 217.424L377.633 211.297C377.633 201.938 379.675 193.684 383.759 186.537C387.843 179.219 393.459 173.518 400.606 169.434C407.924 165.18 416.092 163.053 425.111 163.053C434.301 163.053 442.469 165.435 449.617 170.2C456.764 174.795 462.38 180.836 466.464 188.324C470.548 195.641 472.59 203.299 472.59 211.297V288.132H444.511ZM360.53 288.132V165.605H388.609V288.132H360.53ZM553.964 290.684C544.604 290.684 536.265 288.727 528.948 284.813C521.63 280.729 515.844 275.198 511.59 268.221C507.506 261.244 505.464 253.331 505.464 244.482V209.255C505.464 200.406 507.591 192.493 511.845 185.516C516.1 178.539 521.885 173.093 529.203 169.179C536.521 165.095 544.774 163.053 553.964 163.053C565.025 163.053 574.98 165.946 583.829 171.732C592.849 177.347 599.911 185.005 605.016 194.705C610.292 204.235 612.929 215.041 612.929 227.124C612.929 239.036 610.292 249.842 605.016 259.542C599.911 269.072 592.849 276.645 583.829 282.261C574.98 287.876 565.025 290.684 553.964 290.684ZM488.361 288.132V104.342H516.44V195.726L511.59 225.337L516.44 255.203V288.132H488.361ZM549.369 264.137C556.176 264.137 562.132 262.605 567.237 259.542C572.513 256.309 576.597 251.884 579.49 246.268C582.553 240.653 584.085 234.186 584.085 226.868C584.085 219.551 582.553 213.084 579.49 207.468C576.597 201.853 572.513 197.513 567.237 194.45C562.132 191.217 556.176 189.6 549.369 189.6C542.562 189.6 536.521 191.217 531.245 194.45C525.97 197.513 521.885 201.853 518.992 207.468C516.1 213.084 514.653 219.551 514.653 226.868C514.653 234.186 516.1 240.653 518.992 246.268C521.885 251.884 525.97 256.309 531.245 259.542C536.521 262.605 542.562 264.137 549.369 264.137ZM679.828 290.684C667.916 290.684 657.11 287.876 647.41 282.261C637.71 276.475 629.967 268.732 624.181 259.032C618.565 249.332 615.757 238.525 615.757 226.613C615.757 214.701 618.565 203.98 624.181 194.45C629.967 184.92 637.71 177.347 647.41 171.732C657.11 165.946 667.916 163.053 679.828 163.053C691.911 163.053 702.802 165.861 712.502 171.476C722.202 177.092 729.86 184.75 735.476 194.45C741.262 203.98 744.155 214.701 744.155 226.613C744.155 238.525 741.262 249.332 735.476 259.032C729.86 268.732 722.202 276.475 712.502 282.261C702.802 287.876 691.911 290.684 679.828 290.684ZM679.828 263.626C686.805 263.626 692.932 262.095 698.207 259.032C703.653 255.798 707.822 251.374 710.715 245.758C713.778 240.142 715.31 233.761 715.31 226.613C715.31 219.466 713.778 213.169 710.715 207.724C707.652 202.278 703.483 198.024 698.207 194.961C692.932 191.727 686.805 190.111 679.828 190.111C673.021 190.111 666.895 191.727 661.449 194.961C656.174 198.024 652.005 202.278 648.941 207.724C646.048 213.169 644.602 219.466 644.602 226.613C644.602 233.761 646.048 240.142 648.941 245.758C652.005 251.374 656.174 255.798 661.449 259.032C666.895 262.095 673.021 263.626 679.828 263.626ZM805.029 290.684C794.648 290.684 785.374 288.387 777.205 283.792C769.207 279.197 762.91 272.901 758.316 264.903C753.891 256.734 751.679 247.375 751.679 236.824V165.605H779.758V235.547C779.758 241.504 780.694 246.609 782.566 250.863C784.608 254.947 787.501 258.096 791.245 260.308C795.159 262.52 799.753 263.626 805.029 263.626C813.197 263.626 819.409 261.244 823.663 256.479C828.088 251.544 830.3 244.567 830.3 235.547V165.605H858.379V236.824C858.379 247.545 856.081 256.989 851.487 265.158C847.062 273.156 840.851 279.453 832.853 284.047C824.854 288.472 815.58 290.684 805.029 290.684ZM957.83 288.132V217.424C957.83 209.255 955.192 202.533 949.917 197.258C944.811 191.982 938.174 189.345 930.006 189.345C924.56 189.345 919.71 190.536 915.456 192.918C911.202 195.301 907.883 198.619 905.501 202.874C903.118 207.128 901.927 211.978 901.927 217.424L890.951 211.297C890.951 201.938 892.993 193.684 897.077 186.537C901.161 179.219 906.777 173.518 913.924 169.434C921.242 165.18 929.41 163.053 938.43 163.053C947.619 163.053 955.788 165.435 962.935 170.2C970.082 174.795 975.698 180.836 979.782 188.324C983.867 195.641 985.909 203.299 985.909 211.297V288.132H957.83ZM873.848 288.132V165.605H901.927V288.132H873.848ZM1052.99 290.684C1041.93 290.684 1031.89 287.876 1022.87 282.261C1014.02 276.645 1006.95 269.072 1001.68 259.542C996.574 249.842 994.021 239.036 994.021 227.124C994.021 215.041 996.574 204.235 1001.68 194.705C1006.95 185.005 1014.02 177.347 1022.87 171.732C1031.89 165.946 1041.93 163.053 1052.99 163.053C1062.35 163.053 1070.6 165.095 1077.75 169.179C1085.07 173.093 1090.85 178.539 1095.11 185.516C1099.36 192.493 1101.49 200.406 1101.49 209.255V244.482C1101.49 253.331 1099.36 261.244 1095.11 268.221C1091.02 275.198 1085.32 280.729 1078 284.813C1070.69 288.727 1062.35 290.684 1052.99 290.684ZM1057.58 264.137C1064.56 264.137 1070.6 262.605 1075.71 259.542C1080.98 256.309 1085.07 251.884 1087.96 246.268C1090.85 240.653 1092.3 234.186 1092.3 226.868C1092.3 219.551 1090.85 213.084 1087.96 207.468C1085.07 201.853 1080.98 197.513 1075.71 194.45C1070.6 191.217 1064.56 189.6 1057.58 189.6C1050.77 189.6 1044.73 191.217 1039.46 194.45C1034.35 197.513 1030.27 201.853 1027.21 207.468C1024.31 213.084 1022.87 219.551 1022.87 226.868C1022.87 234.186 1024.31 240.653 1027.21 246.268C1030.27 251.884 1034.35 256.309 1039.46 259.542C1044.73 262.605 1050.77 264.137 1057.58 264.137ZM1118.59 288.132H1090.51V255.203L1095.36 225.337L1090.51 195.726V104.342H1118.59V288.132Z" fill="#111827"/>
<rect x="46.886" y="86.8772" width="209.316" height="209.316" rx="62.7948" fill="#6C47FF"/>
<rect x="46.886" y="86.8772" width="209.316" height="209.316" rx="62.7948" fill="url(#paint0_linear_1_16)" fill-opacity="0.15"/>
<rect x="47.1765" y="87.1677" width="208.735" height="208.735" rx="62.5043" stroke="url(#paint1_linear_1_16)" stroke-opacity="0.12" stroke-width="0.581027"/>
<g filter="url(#filter0_d_1_16)">
<path d="M116.07 142.415C118.157 140.127 120.989 138.842 123.941 138.842H151.77V194.088C149.571 194.088 147.421 193.374 145.592 192.036L115.55 173.053C114.784 172.5 114.155 171.749 113.718 170.866C113.281 169.983 113.05 168.995 113.045 167.99L112.809 151.041C112.809 147.806 113.982 144.703 116.07 142.415Z" fill="url(#paint2_linear_1_16)"/>
<path d="M187.471 142.415C185.383 140.127 182.552 138.842 179.599 138.842L151.77 138.842V194.088C153.969 194.088 156.119 193.374 157.948 192.037L188.462 173.053C189.228 172.5 189.857 171.749 190.294 170.866C190.731 169.983 190.962 168.995 190.967 167.99L190.731 151.041C190.731 147.806 189.558 144.703 187.471 142.415Z" fill="url(#paint3_linear_1_16)"/>
<g filter="url(#filter1_d_1_16)">
<path d="M208.154 184.42V233.531C208.154 236.384 206.966 239.121 204.852 241.138C202.737 243.156 199.868 244.289 196.878 244.289H106.663C103.672 244.289 100.804 243.156 98.6889 241.138C96.5741 239.121 95.386 236.384 95.386 233.531V184.42C95.3796 182.469 95.9291 180.554 96.9757 178.878C98.0223 177.203 99.5267 175.83 101.328 174.908C103.129 173.985 105.159 173.547 107.202 173.64C109.244 173.733 111.221 174.354 112.922 175.437L146.742 196.978C149.81 198.932 153.731 198.932 156.798 196.978L190.619 175.437C192.32 174.354 194.297 173.733 196.339 173.64C198.381 173.547 200.411 173.985 202.213 174.908C204.014 175.83 205.518 177.203 206.565 178.878C207.611 180.554 208.161 182.469 208.154 184.42Z" fill="url(#paint4_linear_1_16)" shape-rendering="crispEdges"/>
</g>
</g>
<defs>
<filter id="filter0_d_1_16" x="72.6723" y="127.485" width="158.196" height="150.875" filterUnits="userSpaceOnUse" color-interpolation-filters="sRGB">
<feFlood flood-opacity="0" result="BackgroundImageFix"/>
<feColorMatrix in="SourceAlpha" type="matrix" values="0 0 0 0 0 0 0 0 0 0 0 0 0 0 0 0 0 0 127 0" result="hardAlpha"/>
<feOffset dy="11.3568"/>
<feGaussianBlur stdDeviation="11.3568"/>
<feComposite in2="hardAlpha" operator="out"/>
<feColorMatrix type="matrix" values="0 0 0 0 0.0891864 0 0 0 0 0.0267151 0 0 0 0 0.0443126 0 0 0 0.5 0"/>
<feBlend mode="normal" in2="BackgroundImageFix" result="effect1_dropShadow_1_16"/>
<feBlend mode="normal" in="SourceGraphic" in2="effect1_dropShadow_1_16" result="shape"/>
</filter>
<filter id="filter1_d_1_16" x="94.418" y="173.628" width="114.704" height="72.5978" filterUnits="userSpaceOnUse" color-interpolation-filters="sRGB">
<feFlood flood-opacity="0" result="BackgroundImageFix"/>
<feColorMatrix in="SourceAlpha" type="matrix" values="0 0 0 0 0 0 0 0 0 0 0 0 0 0 0 0 0 0 127 0" result="hardAlpha"/>
<feOffset dy="0.96797"/>
<feGaussianBlur stdDeviation="0.483985"/>
<feComposite in2="hardAlpha" operator="out"/>
<feColorMatrix type="matrix" values="0 0 0 0 0 0 0 0 0 0 0 0 0 0 0 0 0 0 0.25 0"/>
<feBlend mode="normal" in2="BackgroundImageFix" result="effect1_dropShadow_1_16"/>
<feBlend mode="normal" in="SourceGraphic" in2="effect1_dropShadow_1_16" result="shape"/>
</filter>
<linearGradient id="paint0_linear_1_16" x1="151.544" y1="86.8772" x2="151.544" y2="296.193" gradientUnits="userSpaceOnUse">
<stop stop-color="white"/>
<stop offset="1" stop-color="white" stop-opacity="0"/>
</linearGradient>
<linearGradient id="paint1_linear_1_16" x1="151.544" y1="86.8772" x2="151.544" y2="296.193" gradientUnits="userSpaceOnUse">
<stop stop-color="white"/>
<stop offset="1" stop-color="white" stop-opacity="0"/>
</linearGradient>
<linearGradient id="paint2_linear_1_16" x1="151.888" y1="138.781" x2="151.888" y2="194.088" gradientUnits="userSpaceOnUse">
<stop stop-color="#F5F3FF"/>
<stop offset="1" stop-color="#F5F3FF" stop-opacity="0.7"/>
</linearGradient>
<linearGradient id="paint3_linear_1_16" x1="151.888" y1="138.781" x2="151.888" y2="194.088" gradientUnits="userSpaceOnUse">
<stop stop-color="#F5F3FF"/>
<stop offset="1" stop-color="#F5F3FF" stop-opacity="0.7"/>
</linearGradient>
<linearGradient id="paint4_linear_1_16" x1="151.77" y1="173.628" x2="151.77" y2="244.289" gradientUnits="userSpaceOnUse">
<stop stop-color="#F5F3FF"/>
<stop offset="1" stop-color="#F5F3FF" stop-opacity="0.7"/>
</linearGradient>
</defs>
</svg>
